{"title":"Paranormal.Activity.The.Ghost.Dimension.2015.BRRip-VYTO [P2PDL]","uid":13110749,"size":374872646,"categoryP":"video","categoryS":"movies","magnet":"?xt=urn:btih:7b661bf9a22ae3b71ce49860ba17a5d4b64545dd&amp;dn=Paranormal.Activity.The.Ghost.Dimension.2015.BRRip-VYTO+%5BP2PDL%5D&amp;tr=udp%3A%2F%2Ftracker.leechers-paradise.org%3A6969&amp;tr=udp%3A%2F%2Fzer0day.ch%3A1337&amp;tr=udp%3A%2F%2Fopen.demonii.com%3A1337&amp;tr=udp%3A%2F%2Ftracker.coppersurfer.tk%3A6969&amp;tr=udp%3A%2F%2Fexodus.desync.com%3A6969","seeders":0,"leechers":1,"uploader":"VYTOP2PDL","files":7,"time":1451474917,"description":"____    ____ ____    ____ .___________.  ______   \r\n     /   /      /   / |           | /  __    \r\n    /   /      /   /  `---|  |----`|  |  |  | \r\n        /     _    _/       |  |     |  |  |  | \r\n       /        |  |         |  |     |  `--'  | \r\n    __/         |__|         |__|      ______/  \r\n                                                  \r\nPresenting Small Encodes with quality for years!\r\n                                                                                                   \r\n                                                                                                   \r\n\r\nParanormal.Activity.The.Ghost.Dimension.2015.BRRip.480p.x264.AAC-VYTO\r\n\r\n\r\nGenre: Horror \nhttp://www.imdb.com/title/tt2473510/\r\n\r\n\r\nFormat                                   : MPEG-4\r\nFile size                                : 351 MiB\r\nDuration                                 : 1h 37mn\r\nOverall bit rate                         : 504 Kbps\r\n\r\nVideo\r\nFormat                                   : AVC\r\nBit rate                                 : 470 Kbps\r\nWidth                                    : 720 pixels\r\nHeight                                   : 400 pixels\r\nDisplay aspect ratio                     : 16:9\r\nFrame rate mode                          : Constant\r\nFrame rate                               : 23.976 fps\r\nBit depth                                : 8 bits\r\nStream size                              : 327 MiB (93%)\r\nWriting library                          : x264\r\n\r\nAudio\r\nFormat                                   : AAC\r\nBit rate mode                            : Variable\r\nBit rate                                 : 30.7 Kbps\r\nChannel(s)                               : 2 channels \r\nChannel positions                        : Front: L R\r\nSampling rate                            : 48.0 KHz\r\nStream size                              : 21.4 MiB (6%)\r\nLanguage                                 : English\r\n\r\nSubtitle                                 : Yes (English)\r\n\r\nScreen Shots: (Click to view)\r\n \nhttp://ititli.com/SX \nhttp://ititli.com/Sq \nhttp://ititli.com/Sr \nhttp://ititli.com/S1 \nhttp://ititli.com/ST \nhttp://ititli.com/SW \nhttp://ititli.com/Sg \nhttp://ititli.com/Sn \nhttp://ititli.com/Sw\r\n\r\n----------------------------------------------------------------------------------------------------\r\n\r\n\r\nEncoder Notes: Looking For Early Access To Anything You Can Provide WEBDL, DVDScr, DVDR, BluRay,\r\nDirect Audio, Music Releases and Seedboxes. If You Got anything to offer please contact us.\r\n\r\nSupport us by donating BC - 1FgwdzPsd1y25Gea8wP1qni35uGCtmkRCD\r\n\r\nSend some love!\r\nind us and join us!","torrent":{"xt":"urn:btih:7b661bf9a22ae3b71ce49860ba17a5d4b64545dd","amp;dn":"Paranormal.Activity.The.Ghost.Dimension.2015.BRRip-VYTO+%5BP2PDL%5D","amp;tr":["udp%3A%2F%2Ftracker.leechers-paradise.org%3A6969","udp%3A%2F%2Fzer0day.ch%3A1337","udp%3A%2F%2Fopen.demonii.com%3A1337","udp%3A%2F%2Ftracker.coppersurfer.tk%3A6969","udp%3A%2F%2Fexodus.desync.com%3A6969"],"infoHash":"7b661bf9a22ae3b71ce49860ba17a5d4b64545dd","infoHashBuffer":{"type":"Buffer","data":[123,102,27,249,162,42,227,183,28,228,152,96,186,23,165,212,182,69,69,221]},"announce":[],"urlList":[]}}